<?xml version="1.0" encoding="utf-8"?>
<!-- Generator: Adobe Illustrator 15.0.2, SVG Export Plug-In . SVG Version: 6.00 Build 0)  -->
<!DOCTYPE svg PUBLIC "-//W3C//DTD SVG 1.1//EN" "http://www.w3.org/Graphics/SVG/1.1/DTD/svg11.dtd">
<svg version="1.1" id="Layer_1" xmlns="http://www.w3.org/2000/svg" xmlns:xlink="http://www.w3.org/1999/xlink" x="0px" y="0px"
	 width="200px" height="278.814px" viewBox="0 0 200 278.814" enable-background="new 0 0 200 278.814" xml:space="preserve">
<path fill="#DB1F26" d="M122.833,227.889c0-18.981,18.055-27.777,42.654-52.314L100,182.981l-65.488-7.407
	c24.6,24.537,42.655,33.333,42.655,52.314S0,241.314,0,258.907s52.63,19.907,66.519,19.907c13.881,0,33.459,0,33.48,0H100
	c0.021,0,19.601,0,33.481,0c13.889,0,66.518-2.314,66.518-19.907S122.833,246.87,122.833,227.889z"/>
<path fill="#E5E5E5" d="M100,0C44.771,0,0,44.771,0,100h200C200,44.771,155.229,0,100,0z"/>
<path fill="#ED1F24" d="M0,100c0,55.228,44.771,100,100,100s100-44.772,100-100H0z"/>
<ellipse fill="#EE2F2E" cx="100" cy="148.843" rx="27.889" ry="26.731"/>
<linearGradient id="SVGID_1_" gradientUnits="userSpaceOnUse" x1="100.0005" y1="166.1118" x2="100.0005" y2="122.1118">
	<stop  offset="0" style="stop-color:#ED1F24"/>
	<stop  offset="1" style="stop-color:#D12127"/>
</linearGradient>
<ellipse fill="url(#SVGID_1_)" cx="100" cy="144.112" rx="27.889" ry="22"/>
</svg>
